HIERARCHY
ROOT hip
{
	OFFSET 0.000000 0.000000 0.000000 
	CHANNELS 6 Xposition Yposition Zposition Xrotation Zrotation Yrotation
	JOINT abdomen
	{
		OFFSET 0.000000 3.402643 0.000000 
		CHANNELS 3 Xrotation Zrotation Yrotation
		JOINT chest
		{
			OFFSET 0.000000 8.438565 -0.680529 
			CHANNELS 3 Xrotation Zrotation Yrotation
			JOINT neck
			{
				OFFSET 0.000000 10.207942 -0.272212 
				CHANNELS 3 Xrotation Zrotation Yrotation
				JOINT head
				{
					OFFSET 0.000000 3.130431 0.000000 
					CHANNELS 3 Xrotation Zrotation Yrotation
					End Site
					{
						OFFSET 0.000000 3.130435 0.000000 
					}
				}
			}
			JOINT lCollar
			{
				OFFSET 3.470700 6.669187 -0.816635 
				CHANNELS 3 Yrotation Zrotation Xrotation
				JOINT lShldr
				{
					OFFSET 3.198488 0.000000 0.000000 
					CHANNELS 3 Zrotation Yrotation Xrotation
					JOINT lForeArm
					{
						OFFSET 10.139888 0.000000 0.000000 
						CHANNELS 3 Yrotation Zrotation Xrotation
						JOINT lHand
						{
							OFFSET 8.370511 0.000000 0.000000 
							CHANNELS 3 Zrotation Yrotation Xrotation
							End Site
							{
								OFFSET 4.083176 0.000000 0.000000 
							}
						}
					}
				}
			}
			JOINT rCollar
			{
				OFFSET -3.470700 6.669187 -0.816635 
				CHANNELS 3 Yrotation Zrotation Xrotation
				JOINT rShldr
				{
					OFFSET -3.198488 0.000000 0.000000 
					CHANNELS 3 Zrotation Yrotation Xrotation
					JOINT rForeArm
					{
						OFFSET -10.139888 0.000000 0.000000 
						CHANNELS 3 Yrotation Zrotation Xrotation
						JOINT rHand
						{
							OFFSET -8.370511 0.000000 0.000000 
							CHANNELS 3 Zrotation Yrotation Xrotation
							End Site
							{
								OFFSET -4.083176 0.000000 0.000000 
							}
						}
					}
				}
			}
		}
	}
	JOINT lThigh
	{
		OFFSET 5.308129 -1.633274 1.361059 
		CHANNELS 3 Xrotation Zrotation Yrotation
		JOINT lShin
		{
			OFFSET -2.041588 -20.007561 0.000000 
			CHANNELS 3 Xrotation Zrotation Yrotation
			JOINT lFoot
			{
				OFFSET 0.000000 -19.190928 -1.224953 
				CHANNELS 3 Xrotation Yrotation Zrotation
				End Site
				{
					OFFSET 0.000000 -2.449906 4.627600 
				}
			}
		}
	}
	JOINT rThigh
	{
		OFFSET -5.308129 -1.633274 1.361059 
		CHANNELS 3 Xrotation Zrotation Yrotation
		JOINT rShin
		{
			OFFSET 2.041588 -20.007561 0.000000 
			CHANNELS 3 Xrotation Zrotation Yrotation
			JOINT rFoot
			{
				OFFSET 0.000000 -19.190928 -1.224953 
				CHANNELS 3 Xrotation Yrotation Zrotation
				End Site
				{
					OFFSET 0.000000 -2.449906 4.627600 
				}
			}
		}
	}
}
MOTION
Frames: 13
Frame Time: 0.011111
46.348610 52.385254 56.315376 10.823203 8.441799 -100.321465 30.221525 9.682758 8.647066 -21.630106 1.452285 1.204163 -5.626647 -8.811068 -7.432311 3.462341 11.301186 -15.492686 2.971642 -4.490881 1.927035 -71.450577 -27.079557 6.335918 -45.052971 6.395116 6.218976 8.524705 12.647240 -50.970100 -4.704987 0.510038 2.448925 75.304482 32.656029 17.693869 43.045338 -5.786107 5.487072 -8.534408 -12.637552 55.843605 -38.108894 20.954081 -4.529348 40.118896 -4.634411 -6.121870 -16.859425 -1.901125 -3.485507 11.111517 10.828440 2.944153 20.366173 5.767060 3.554935 -26.982786 0.845834 2.460360 
46.063560 52.388714 56.349953 10.541236 8.484846 -100.536263 30.166842 9.361948 8.781570 -21.610172 1.533013 1.279660 -5.736378 -8.914697 -7.433057 3.611762 11.365729 -15.517753 2.971642 -4.490881 1.927035 -71.585953 -26.656004 5.955140 -45.094410 6.409682 6.235400 8.524705 12.647240 -50.794319 -4.704987 0.510038 2.448925 74.948891 32.626022 15.158467 42.464104 -5.600169 5.272992 -8.534408 -12.637552 51.888531 -37.753880 20.601067 -4.469100 40.226570 -4.636144 -6.141506 -16.914965 -1.611392 -3.402712 11.170465 10.418697 3.035740 20.470507 5.756521 3.562943 -26.944334 0.824024 2.467793 
45.762493 52.404736 56.414375 10.418460 8.510347 -100.834267 30.195410 9.351665 8.897674 -21.687870 1.633523 1.302880 -5.628490 -9.017330 -7.333760 3.463080 11.113935 -15.327756 2.971642 -4.490881 1.927035 -71.936722 -26.138966 5.327078 -45.125134 6.419318 6.253324 8.524705 12.647240 -50.823620 -4.704987 0.510038 2.448925 74.540009 32.148621 16.590796 42.688438 -5.673249 5.354641 -8.534408 -12.637552 55.599468 -37.385456 20.416653 -4.355657 40.444824 -4.611519 -6.161513 -16.960918 -1.215437 -3.270704 11.333246 10.045009 3.032637 20.470222 5.756430 3.572650 -26.595083 1.331713 2.747421 
45.443825 52.419823 56.453968 10.326308 8.405054 -100.734962 30.206949 9.432529 8.631555 -21.707275 1.679546 1.222266 -5.466204 -8.791853 -7.256483 3.251323 10.651052 -15.146894 2.971642 -4.490881 1.927035 -72.001083 -25.668356 4.832695 -45.165802 6.426942 6.262908 8.524705 12.647240 -50.227917 -4.704987 0.510038 2.448925 74.309769 31.759577 16.859442 42.668076 -5.668981 5.355276 -8.534408 -12.637552 56.790874 -36.934818 20.132717 -4.252972 40.564270 -4.595403 -6.166169 -16.671461 -0.993370 -3.228946 11.647482 9.792649 2.885310 20.563179 5.747934 3.598623 -26.430143 1.541643 2.861992 
45.123898 52.423908 56.440456 10.446999 8.304241 -100.787994 30.239689 9.461783 8.695449 -21.580412 1.647939 1.236876 -5.469712 -8.419041 -7.241057 3.180507 10.313655 -15.064308 2.971642 -4.490881 1.927035 -71.841255 -25.320776 4.706855 -45.238209 6.450396 6.288712 8.524705 12.647240 -49.466202 -4.704987 0.510038 2.448925 74.247513 31.596516 15.294228 42.392464 -5.572648 5.240276 -8.534408 -12.637552 54.515484 -36.568108 20.242167 -4.093798 40.712032 -4.592043 -6.177780 -16.324083 -0.939243 -3.202790 12.083266 9.829114 3.305437 20.675119 5.745342 3.618556 -26.394539 1.385259 2.778542 
44.808052 52.477333 56.500172 9.979510 8.511343 -101.210129 29.908653 9.084865 8.815205 -21.532156 1.494459 1.341779 -5.506422 -8.248780 -7.252245 3.154123 10.091756 -15.078334 2.971642 -4.490881 1.927035 -71.859619 -24.958828 4.469260 -45.310402 6.474356 6.323234 8.524705 12.647240 -49.251354 -4.704987 0.510038 2.448925 74.126938 31.602840 12.027189 41.771767 -5.370946 5.023232 -8.534408 -12.637552 49.222511 -36.231884 19.859249 -3.415768 40.811348 -4.566192 -6.216613 -15.994371 -0.512510 -3.105371 11.868657 9.155748 3.335942 20.799206 5.734850 3.637031 -26.029804 1.616258 2.924154 
44.484665 52.454391 56.512745 10.194745 8.360691 -101.360435 30.128447 9.230311 9.114078 -21.629950 1.459263 1.379807 -5.543171 -8.042451 -7.295133 3.227233 9.803432 -15.131269 2.971642 -4.490881 1.927035 -71.975273 -24.535751 4.205434 -45.485233 6.523368 6.385255 8.524705 12.647240 -48.909557 -4.704987 0.510038 2.448925 73.939293 31.377834 11.560192 41.476521 -5.265967 4.913543 -8.534408 -12.637552 49.085796 -35.754417 20.093975 -3.064603 40.967743 -4.575914 -6.233590 -15.702858 -0.367532 -3.076770 12.397775 9.264578 3.976200 20.931198 5.737400 3.620623 -25.935104 1.214087 2.755943 
44.163170 52.426426 56.508347 10.423868 8.136367 -101.534798 30.390291 9.289911 9.374566 -21.658991 1.510719 1.425894 -5.551710 -8.028319 -7.236089 3.319221 9.835302 -15.021765 2.971642 -4.490881 1.927035 -72.101158 -24.122169 4.166583 -45.773113 6.602504 6.493537 8.524705 12.647240 -48.460339 -4.704987 0.510038 2.448925 73.774704 30.907019 13.584914 41.791870 -5.376081 5.032129 -8.534408 -12.637552 53.822124 -35.142933 20.349760 -2.690502 41.146358 -4.553009 -6.250570 -15.702458 -0.579465 -3.137235 13.045401 9.374090 4.616805 21.082193 5.738575 3.653444 -25.789608 0.759599 2.553002 
43.847328 52.434910 56.499538 10.562684 7.975570 -101.646400 30.537891 9.357219 9.538371 -21.707022 1.698525 1.446288 -5.476260 -8.377261 -7.097716 3.236779 9.972016 -14.771720 2.971642 -4.490881 1.927035 -72.474823 -23.711882 3.998612 -45.969181 6.660770 6.573362 8.524705 12.647240 -48.225964 -4.704987 0.510038 2.448925 73.447426 30.552252 13.195037 41.822327 -5.387412 5.048723 -8.534408 -12.637552 54.134621 -34.606674 20.574812 -2.188508 41.343842 -4.549851 -6.247121 -15.838647 -1.179235 -3.302119 13.504714 9.384119 5.113445 21.266003 5.728638 3.697669 -25.530643 0.472708 2.449902 
43.489059 52.449680 56.528454 10.469916 7.558362 -101.661461 30.849352 9.285710 9.474510 -21.804436 1.768448 1.420964 -5.496098 -8.471240 -7.026715 3.379643 9.904289 -14.640824 2.971642 -4.490881 1.927035 -72.750275 -23.333405 3.612844 -46.103523 6.700789 6.626795 8.524705 12.647240 -48.059952 -4.704987 0.510038 2.448925 73.181519 30.350775 11.039892 41.506954 -5.277454 4.930002 -8.534408 -12.637552 50.765484 -33.608204 20.300049 -1.847649 41.472115 -4.540104 -6.264407 -16.337919 -1.422528 -3.370906 14.022156 9.071650 5.423217 21.611471 5.719623 3.747336 -25.378807 0.371087 2.414850 
43.124504 52.488964 56.576534 9.870950 7.428870 -101.660591 30.590183 8.779145 9.126104 -21.765493 1.737797 1.413641 -5.670244 -8.336253 -7.010706 3.772473 9.980870 -14.598650 2.971642 -4.490881 1.927035 -72.721977 -23.060598 3.569362 -46.237915 6.740479 6.679319 8.524705 12.647240 -47.737682 -4.704987 0.510038 2.448925 73.191429 30.056774 9.927914 41.477119 -5.273283 4.919985 -8.534408 -12.637552 49.456886 -32.818329 19.509563 -1.421453 41.531639 -4.533570 -6.267180 -16.686390 -1.348942 -3.316534 13.944022 8.319814 5.283563 22.040548 5.699683 3.781615 -25.066555 0.120893 2.314912 
42.764984 52.524479 56.629341 9.543825 7.417286 -101.687325 30.309986 8.667392 8.944438 -21.571283 1.468742 1.410197 -5.951392 -8.281458 -6.871850 4.163989 10.099688 -14.308159 2.971642 -4.490881 1.927035 -72.610710 -22.985365 3.556286 -46.309662 6.755773 6.699162 8.524705 12.647240 -47.688854 -4.704987 0.510038 2.448925 73.367287 29.832453 9.492265 41.577808 -5.298730 4.954412 -8.534408 -12.637552 49.222511 -32.185059 19.110054 -0.889889 41.550724 -4.540064 -6.271193 -16.852081 -1.500063 -3.371828 13.825568 7.860164 5.182564 22.588112 5.680305 3.876964 -24.736897 -0.315627 2.163398 
42.421169 52.541759 56.644104 9.609576 7.277458 -101.798363 30.308083 8.802937 9.043876 -21.455658 1.114890 1.435586 -6.122239 -8.092890 -6.727221 4.412957 9.957253 -13.994005 2.971642 -4.490881 1.927035 -72.461685 -22.969734 3.200187 -46.268932 6.748886 6.687933 8.524705 12.647240 -48.059952 -4.704987 0.510038 2.448925 73.637375 29.661900 8.606593 41.578407 -5.306036 4.960865 -8.534408 -12.637552 48.060406 -31.502413 19.218012 -0.384945 41.581051 -4.530309 -6.270288 -17.111595 -1.811411 -3.465044 13.966889 7.779897 5.336547 23.218824 5.645950 3.965676 -24.422766 -0.282983 2.217219 
